<svg id="flat" height="512" viewBox="0 0 512 512" width="512" xmlns="http://www.w3.org/2000/svg"><path d="m439.54 290.76a17.40691 17.40691 0 0 1 16.1-10.76h32.36v-64h-32.36a17.40691 17.40691 0 0 1 -16.1-10.76 1.80117 1.80117 0 0 1 -.08008-.21 17.42208 17.42208 0 0 1 3.76-19l22.89-22.88013-45.26-45.25976-22.87992 22.88989a17.42208 17.42208 0 0 1 -19 3.76 1.80941 1.80941 0 0 1 -.21-.08008 17.407 17.407 0 0 1 -10.76-16.10006v-32.35986h-64v32.35986l-29.97 12.42014-22.88-22.88989-45.26 45.25979 22.89 22.8801a17.422 17.422 0 0 1 3.76 19 1.80015 1.80015 0 0 1 -.08.21 17.407 17.407 0 0 1 -16.1 10.76h-8.36l-24 64h32.36a17.407 17.407 0 0 1 16.1 10.76 1.80015 1.80015 0 0 1 .08.21 17.422 17.422 0 0 1 -3.76 19l-22.89 22.8801 45.26 45.25976 22.88-22.88986a17.42208 17.42208 0 0 1 19-3.76 1.80941 1.80941 0 0 1 .21.08008 17.4067 17.4067 0 0 1 10.76 16.10006v32.35986h64v-32.35986a17.4067 17.4067 0 0 1 10.76-16.10014 1.80941 1.80941 0 0 1 .21-.08008 17.42208 17.42208 0 0 1 19 3.76l22.88 22.88989 45.26-45.25976-22.89-22.88005a17.42208 17.42208 0 0 1 -3.76-19 1.80117 1.80117 0 0 1 .08-.21zm-103.54-82.76a40 40 0 1 1 -40 40 40.00166 40.00166 0 0 1 40-40z" fill="#ef5e3b"/><path d="m47.759 41.714h88.481v16h-88.481z" fill="#62798c" transform="matrix(.814 -.581 .581 .814 -11.759 62.735)"/><path d="m24 112h80v32h-80z" fill="#ffb401"/><path d="m24 112v-24l24-24h24v48z" fill="#ffa100"/><path d="m80 216v-72h80l-16 72z" fill="#c8dbf7"/><path d="m112 144v40h39.111l8.889-40z" fill="#b2c6eb"/><path d="m104 136v-48h160l40 48z" fill="#ffd873"/><path d="m304 144h-200a8.00008 8.00008 0 0 1 -8-8v-48a8.00008 8.00008 0 0 1 8-8h160a8.00036 8.00036 0 0 1 6.146 2.87891l40 48a7.9999 7.9999 0 0 1 -6.146 13.12109zm-192-16h174.91992l-26.667-32h-148.25292z" fill="#ffc431"/><path d="m184 240 16-32h80l16 32z" fill="#4976f2"/><path d="m224 88h16v48h-16z" fill="#ffc431"/><path d="m152 88h16v48h-16z" fill="#ffc431"/><path d="m164.759 104h62.482v16h-62.482z" fill="#ffc431" transform="matrix(.64 -.768 .768 .64 -15.513 190.882)"/><path d="m100.759 104h62.482v16h-62.482z" fill="#ffc431" transform="matrix(.64 -.768 .768 .64 -38.544 141.714)"/><path d="m24 144h32v56h-32z" fill="#c8dbf7"/><path d="m104 88 24-64h24l24 64z" fill="#ffd873"/><path d="m176 96h-72a8.00024 8.00024 0 0 1 -7.49072-10.80859l24-64a7.99938 7.99938 0 0 1 7.49072-5.19141h24a7.99938 7.99938 0 0 1 7.49072 5.19141l24 64a8.00024 8.00024 0 0 1 -7.49072 10.80859zm-60.456-16h48.9121l-18-48h-12.9121z" fill="#ffc431"/><path d="m88 216h48v272h-48z" fill="#ffd873"/><path d="m136 496h-48a8.00008 8.00008 0 0 1 -8-8v-272a8.00008 8.00008 0 0 1 8-8h48a8.00008 8.00008 0 0 1 8 8v272a8.00008 8.00008 0 0 1 -8 8zm-40-16h32v-256h-32z" fill="#ffc431"/><path d="m88 280h48v16h-48z" fill="#ffc431"/><path d="m104 220.759h16v62.482h-16z" fill="#ffc431" transform="matrix(.64 -.768 .768 .64 -153.292 176.714)"/><path d="m104 292.759h16v62.482h-16z" fill="#ffc431" transform="matrix(.64 -.768 .768 .64 -208.604 202.621)"/><path d="m88 352h48v16h-48z" fill="#ffc431"/><path d="m104 364.759h16v62.482h-16z" fill="#ffc431" transform="matrix(.64 -.768 .768 .64 -263.916 228.528)"/><path d="m88 424h48v16h-48z" fill="#ffc431"/><path d="m439.46 290.97a17.42208 17.42208 0 0 0 3.76 19l22.89 22.88013-45.26 45.25976-22.88-22.88989a17.42208 17.42208 0 0 0 -19-3.76 1.80941 1.80941 0 0 0 -.21.08008 17.4067 17.4067 0 0 0 -10.76 16.10006v32.35986h-64v-32.35986a17.4067 17.4067 0 0 0 -10.76-16.10014 1.80941 1.80941 0 0 0 -.21-.08008 17.42208 17.42208 0 0 0 -19 3.76l-22.88 22.88989-45.26-45.25971 22.89-22.8801a17.422 17.422 0 0 0 3.76-19c-.00471-.01653-.01-.03306-.01568-.04957a16.45379 16.45379 0 0 0 -15.615-10.92043h-32.90932l12-32h38.70655a23.93648 23.93648 0 0 1 23.39292 18.28459 80.01042 80.01042 0 1 0 96.18512-96.18512 23.93648 23.93648 0 0 1 -18.28459-23.39292v-50.70655h32v32.35986a17.407 17.407 0 0 0 10.76 16.10014 1.80941 1.80941 0 0 0 .21.08008 17.42208 17.42208 0 0 0 19-3.76l22.88-22.88989 45.26 45.25976-22.89 22.88005a17.42208 17.42208 0 0 0 -3.76 19 1.80117 1.80117 0 0 0 .08008.21 17.40691 17.40691 0 0 0 16.09992 10.76h32.36v64h-32.36a17.40691 17.40691 0 0 0 -16.1 10.76 1.80117 1.80117 0 0 0 -.08.21z" fill="#e35430"/><path d="m168 280h144v208h-144z" fill="#c8dbf7"/><path d="m168 240h144v40h-144z" fill="#548aff"/><g fill="#e8f2ff"><path d="m200 312h16v16h-16z"/><path d="m232 312h16v16h-16z"/><path d="m200 344h16v16h-16z"/><path d="m232 344h16v16h-16z"/><path d="m200 376h16v16h-16z"/><path d="m232 376h16v16h-16z"/><path d="m200 408h16v16h-16z"/><path d="m232 408h16v16h-16z"/><path d="m200 440h16v16h-16z"/><path d="m232 440h16v16h-16z"/><path d="m264 312h16v16h-16z"/><path d="m264 344h16v16h-16z"/><path d="m264 376h16v16h-16z"/><path d="m264 408h16v16h-16z"/><path d="m264 440h16v16h-16z"/></g></svg>