<?xml version="1.0" encoding="iso-8859-1"?>
<!-- Generator: Adobe Illustrator 19.0.0, SVG Export Plug-In . SVG Version: 6.00 Build 0)  -->
<svg version="1.1" id="Capa_1" xmlns="http://www.w3.org/2000/svg" xmlns:xlink="http://www.w3.org/1999/xlink" x="0px" y="0px"
	 viewBox="0 0 512 512" style="enable-background:new 0 0 512 512;" xml:space="preserve">
<path style="fill:#55A2F0;" d="M386.398,311.868c-11.411,0-23.853-6.35-35.943-18.54c-14.237-14.355-26.753-35.522-35.243-59.605
	s-12.018-48.419-9.932-68.528c2.291-22.085,11.165-36.932,24.987-41.805c13.821-4.873,30.046,1.124,45.681,16.89
	c14.237,14.354,26.753,35.522,35.243,59.604s12.018,48.419,9.932,68.528c-2.29,22.085-11.164,36.931-24.987,41.805
	C393.002,311.322,389.745,311.868,386.398,311.868z M339.97,136.86c-1.653,0-3.219,0.254-4.683,0.77
	c-15.963,5.628-22.286,44.414-5.836,91.073c7.762,22.017,19.029,41.192,31.724,53.992c11.132,11.224,22.041,16.067,29.94,13.282
	c15.963-5.628,22.285-44.414,5.835-91.073c-7.762-22.017-19.029-41.192-31.724-53.992C356.159,141.768,347.235,136.86,339.97,136.86
	z"/>
<path style="fill:#FFB125;" d="M50.548,428.003l7.163-7.163c0.944-0.944,1.573-2.158,1.799-3.473l4.752-27.59
	c0.464-2.696,2.576-4.808,5.273-5.273l25.115-4.326c2.696-0.464,4.808-2.576,5.273-5.273l4.326-25.115
	c0.464-2.696,2.576-4.808,5.273-5.273l27.591-4.752c1.316-0.227,2.529-0.855,3.473-1.799l112.648-112.648
	c2.524-2.524,2.524-6.617,0-9.141l-38.732-38.732c-2.524-2.524-6.617-2.524-9.141,0L2.675,380.13
	c-1.181,1.181-1.859,2.773-1.892,4.443l-0.782,39.515c-0.073,3.669,2.921,6.663,6.59,6.59l39.515-0.782
	C47.775,429.862,49.367,429.184,50.548,428.003z"/>
<path style="fill:#FEE570;" d="M219.973,182.914L0.429,402.459l-0.428,21.628c-0.001,0.05,0.005,0.099,0.005,0.149l230.645-230.645
	L219.973,182.914z"/>
<path style="fill:#FF901D;" d="M253.235,216.175L230.65,193.59L0.005,424.236c0.011,3.601,2.966,6.513,6.586,6.442l39.515-0.782
	c1.67-0.033,3.262-0.711,4.443-1.892l7.163-7.163c0.944-0.944,1.573-2.158,1.799-3.473l4.752-27.59
	c0.464-2.697,2.576-4.808,5.273-5.273l25.115-4.326c2.696-0.464,4.808-2.576,5.273-5.273l4.326-25.115
	c0.464-2.696,2.576-4.808,5.273-5.273l27.591-4.752c1.316-0.227,2.529-0.855,3.473-1.799l112.648-112.648
	C255.759,222.792,255.759,218.7,253.235,216.175z"/>
<path style="fill:#2D5872;" d="M363.465,67.213c-44.2-44.2-115.862-44.2-160.061,0c-44.2,44.2-44.2,115.862,0,160.061
	s115.862,44.2,160.061,0C407.665,183.074,407.665,111.412,363.465,67.213z M294.869,135.809c-13.782-13.782-13.782-36.126,0-49.908
	s36.126-13.782,49.908,0c13.782,13.782,13.782,36.126,0,49.908C330.995,149.591,308.651,149.591,294.869,135.809z"/>
<path style="fill:#1D4859;" d="M363.465,67.213c-5.683-5.683-11.823-10.63-18.297-14.851
	c28.612,43.879,23.666,103.248-14.851,141.765s-97.885,43.463-141.765,14.851c4.222,6.474,9.168,12.614,14.851,18.297
	c44.2,44.2,115.862,44.2,160.061,0S407.665,111.412,363.465,67.213z"/>
<path style="fill:#FF4C4C;" d="M510.455,369.374c2.62-4.355,1.845-9.948-1.86-13.426L406.189,259.82
	c-4.252-3.992-10.875-3.989-15.124,0.006l-42.079,39.559l-0.006-15.229c-0.002-5.123-4.156-9.274-9.28-9.273l-12.205,0.005
	c-5.123,0.002-9.274,4.156-9.272,9.279l0.017,44.123l-29.509,27.742c-3.702,3.481-4.474,9.073-1.851,13.426l3.741,6.209
	c3.547,5.887,11.621,7,16.629,2.293l10.996-10.338l0.043,104.822c0.001,3.034,2.462,5.493,5.496,5.492l149.85-0.056
	c3.034-0.001,5.493-2.462,5.492-5.496l-0.043-104.822l11.006,10.331c5.01,4.703,13.083,3.585,16.626-2.303L510.455,369.374z
	 M398.668,320.392c-9.045,0-16.377-7.332-16.377-16.377s7.332-16.377,16.377-16.377s16.377,7.332,16.377,16.377
	S407.713,320.392,398.668,320.392z"/>
<path style="fill:#2D5871;" d="M418.781,387.649h-34.629c-4.912,0-8.894,3.982-8.894,8.894v81.372h52.418v-81.372
	C427.675,391.631,423.693,387.649,418.781,387.649z"/>
<path style="fill:#55A2F0;" d="M400.113,287.708c-2.439,4.181-5.484,7.03-8.997,8.268c-7.899,2.784-18.808-2.058-29.94-13.282
	c-12.695-12.8-23.962-31.975-31.724-53.992c-16.45-46.658-10.127-85.444,5.836-91.073c1.464-0.516,3.03-0.77,4.683-0.77
	c1.071,0,2.183,0.12,3.322,0.331c0.503-0.448,1.003-0.9,1.485-1.382c3.446-3.446,6.021-7.429,7.742-11.678
	c-7.77-2.892-15.314-3.187-22.251-0.741c-13.823,4.873-22.697,19.72-24.987,41.805c-2.086,20.109,1.442,44.446,9.932,68.528
	s21.007,45.25,35.243,59.605c12.09,12.19,24.532,18.54,35.943,18.54c3.346,0,6.604-0.546,9.738-1.651
	c6.866-2.421,12.509-7.304,16.733-14.311C410.278,291.367,405.59,288.188,400.113,287.708z"/>
<path style="fill:#F33939;" d="M508.594,355.947L406.189,259.82c-4.252-3.992-10.875-3.989-15.124,0.006l-7.555,7.103l49.806,46.753
	v39.316l-0.034-0.032l0.043,124.929l40.309-0.015c3.034-0.001,5.493-2.462,5.492-5.496l-0.043-104.822l11.006,10.332
	c5.01,4.703,13.083,3.585,16.626-2.303l3.74-6.215C513.075,365.019,512.3,359.426,508.594,355.947z"/>
<g>
</g>
<g>
</g>
<g>
</g>
<g>
</g>
<g>
</g>
<g>
</g>
<g>
</g>
<g>
</g>
<g>
</g>
<g>
</g>
<g>
</g>
<g>
</g>
<g>
</g>
<g>
</g>
<g>
</g>
</svg>
