<svg id="Capa_1" enable-background="new 0 0 511.224 511.224" height="512" viewBox="0 0 511.224 511.224" width="512" xmlns="http://www.w3.org/2000/svg"><g id="XMLID_151_"><path id="XMLID_3756_" d="m393.56 436.845h30v71.364h-30z" fill="#39f" transform="matrix(.931 -.366 .366 .931 -144.657 182.433)"/><path id="XMLID_3671_" d="m66.983 457.527h71.364v30h-71.364z" fill="#9ef" transform="matrix(.366 -.931 .931 .366 -374.634 395.016)"/><path id="XMLID_3663_" d="m311.676 129.516-111.427.018-119.178 304.247 68.993 27.111 105.496-274.853 105.601 274.852 68.993-27.11z" fill="#ff6c6c"/><path id="XMLID_3823_" d="m311.676 129.516-55.504.009v58.108l104.989 273.258 68.993-27.11z" fill="#ff3650"/><path id="XMLID_3666_" d="m241.172 0h30v49.821h-30z" fill="#9ef"/><path id="XMLID_3828_" d="m256.172 0h15v49.821h-15z" fill="#39f"/><circle id="XMLID_3677_" cx="256.172" cy="108.271" fill="#5b64df" r="65.95"/><path id="XMLID_3664_" d="m241.172 295.648h30v53.013h-30z" fill="#9ef"/><path id="XMLID_3665_" d="m84.896 280.648h348.758v30h-348.758z" fill="#5b64df"/><path id="XMLID_3820_" d="m256.172 295.648h15v53.013h-15z" fill="#39f"/><g fill="#2453b3"><path id="XMLID_3819_" d="m256.172 280.648h177.481v30h-177.481z"/><path id="XMLID_3830_" d="m256.172 42.321v131.9c36.365 0 65.95-29.585 65.95-65.95s-29.585-65.95-65.95-65.95z"/></g></g></svg>