<svg id="Layer_5" enable-background="new 0 0 64 64" height="512" viewBox="0 0 64 64" width="512" xmlns="http://www.w3.org/2000/svg"><path d="m58.515 39.143c-2.684-1.61-4.084-4.644-3.569-7.731l.27-1.628-1.627.272c-3.08.512-6.12-.886-7.73-3.57l-.859-1.429-.857 1.429c-1.609 2.683-4.643 4.084-7.729 3.57l-1.628-.272.27 1.63c.515 3.085-.886 6.12-3.569 7.729l-1.43.857 1.429.857c2.684 1.61 4.084 4.644 3.569 7.731l-.27 1.628 1.627-.272c3.084-.509 6.12.886 7.73 3.57l.858 1.429.857-1.429c1.609-2.683 4.641-4.085 7.729-3.57l1.628.272-.27-1.63c-.515-3.085.886-6.12 3.569-7.729l1.43-.857zm-13.515 7.857c-3.866 0-7-3.134-7-7s3.134-7 7-7 7 3.134 7 7-3.134 7-7 7z" fill="#f0bc5e"/><path d="m24 8h38v5h-38z" fill="#f0bc5e"/><path d="m59 7v-3c0-1.654-1.346-3-3-3h-26c-1.654 0-3 1.346-3 3v3h-4v16.811l-2-1.344v-.247c0-1.775-1.444-3.22-3.22-3.22-1.52 0-2.812 1.037-3.144 2.521l-3.439 15.479h-1.932l-5 16h-.265c-1.654 0-3 1.346-3 3v7h28 2 32v-56zm-30-3c0-.551.448-1 1-1h26c.552 0 1 .449 1 1v3h-28zm-6 22.22v11.627l-.265-.847h-1.735v-12.124zm-15.041 21.664 5.309 2.171-6.884 2.868zm1.99-1.347 6.051-3.698 5.914 3.614-6.029 2.512zm5.942 4.592 4.576 1.871h-9.067zm2.618-1.091 5.49-2.288 1.624 5.197zm4.491-5.266-5.082-3.105 3.51-2.145 1.572 5.031zm-7-4.278-2.445-1.494h4.891zm.589-18.538c.126-.563.616-.956 1.191-.956.673 0 1.22.547 1.22 1.22v14.78h-5.753zm-6.017 17.566 3.51 2.145-5.167 3.157zm-7.572 21.478v-5c0-.551.448-1 1-1h24c.552 0 1 .449 1 1v5zm58 0h-30v-5c0-1.654-1.346-3-3-3h-.265l-2.735-8.752v-16.685l12.936 8.69c-.595 1.119-.936 2.394-.936 3.747 0 4.411 3.589 8 8 8s8-3.589 8-8-3.589-8-8-8c-2.34 0-4.441 1.016-5.905 2.622l-14.095-9.468v-16.154h36zm-16-27c3.309 0 6 2.691 6 6s-2.691 6-6 6-6-2.691-6-6 2.691-6 6-6z"/><path d="m57 15h-8v8h8zm-2 6h-4v-4h4z"/><path d="m47 15h-8v8h8zm-2 6h-4v-4h4z"/><path d="m37 15h-8v8h8zm-2 6h-4v-4h4z"/><path d="m49 57h2v2h-2z"/><path d="m57 57h2v2h-2z"/><path d="m53 57h2v2h-2z"/></svg>